<svg width="40" height="40" viewBox="0 0 40 40" fill="none" xmlns="http://www.w3.org/2000/svg">
<path d="M17.0917 26H14.1697C14.1007 25.9998 14.0346 25.971 13.9858 25.9199C13.937 25.8688 13.9096 25.7996 13.9094 25.7273V14.2727C13.9096 14.2004 13.937 14.1312 13.9858 14.0801C14.0346 14.029 14.1007 14.0002 14.1697 14H17.0917C17.3449 14 17.5877 13.8946 17.7668 13.7071C17.9458 13.5196 18.0464 13.2652 18.0464 13C18.0464 12.7348 17.9458 12.4804 17.7668 12.2929C17.5877 12.1054 17.3449 12 17.0917 12H14.1697C13.5945 12.0007 13.043 12.2404 12.6362 12.6664C12.2295 13.0925 12.0007 13.6701 12 14.2727V25.7273C12.0007 26.3299 12.2295 26.9075 12.6362 27.3336C13.043 27.7596 13.5945 27.9993 14.1697 28H17.0917C17.3449 28 17.5877 27.8946 17.7668 27.7071C17.9458 27.5196 18.0464 27.2652 18.0464 27C18.0464 26.7348 17.9458 26.4804 17.7668 26.2929C17.5877 26.1054 17.3449 26 17.0917 26Z" fill="#2D2D2D"/>
<path d="M26.4358 17.8788L23.965 15.2928C23.8763 15.1999 23.7711 15.1263 23.6552 15.076C23.5394 15.0258 23.4152 15 23.2898 15C23.1644 15 23.0403 15.0259 22.9245 15.0762C22.8086 15.1265 22.7034 15.2002 22.6148 15.2931C22.5261 15.386 22.4558 15.4962 22.4079 15.6176C22.3599 15.7389 22.3352 15.869 22.3353 16.0003C22.3353 16.2656 22.436 16.5199 22.6151 16.7074L24.7867 18.9814L16.1365 19.0001C15.8833 19.0001 15.6405 19.1054 15.4614 19.293C15.2824 19.4805 15.1818 19.7349 15.1818 20.0001C15.1818 20.2653 15.2824 20.5197 15.4614 20.7072C15.6405 20.8947 15.8833 21.0001 16.1365 21.0001L24.8217 20.9834L22.6151 23.2948C22.4465 23.4844 22.3548 23.7352 22.3593 23.9942C22.3638 24.2533 22.4641 24.5004 22.6391 24.6836C22.8141 24.8667 23.0501 24.9715 23.2975 24.976C23.5448 24.9804 23.7841 24.8841 23.965 24.7074L26.4339 22.1214C26.6998 21.8428 26.9108 21.5121 27.0547 21.1481C27.1987 20.7842 27.2727 20.3941 27.2727 20.0001C27.2727 19.6061 27.1987 19.216 27.0547 18.852C26.9108 18.488 26.6998 18.1573 26.4339 17.8788H26.4358Z" fill="#2D2D2D"/>
</svg>
